<?xml version="1.0" encoding="utf-8"?>
<!-- Generator: Adobe Illustrator 19.1.0, SVG Export Plug-In . SVG Version: 6.00 Build 0)  -->
<svg version="1.1" id="Layer_1" xmlns="http://www.w3.org/2000/svg" xmlns:xlink="http://www.w3.org/1999/xlink" x="0px" y="0px"
	 viewBox="-652.9 380.1 32 32" style="enable-background:new -652.9 380.1 32 32;" xml:space="preserve">
<style type="text/css">
	.st0{fill:#444444;}
	.st1{fill:#FFFFFF;}
	.st2{fill:#CCCCCC;}
</style>
<path class="st0" d="M-1230.1,770.2c-8.8,0-15.9,7.1-15.9,15.9s7.1,15.9,15.9,15.9s15.9-7.1,15.9-15.9
	C-1214.2,777.3-1221.4,770.2-1230.1,770.2z"/>
<path class="st1" d="M-1220.3,783C-1220.3,782.9-1220.3,782.9-1220.3,783C-1220.3,782.9-1220.3,782.9-1220.3,783L-1220.3,783
	c0-0.1,0-0.1,0-0.2l0,0c0,0,0,0,0-0.1l0,0c0,0,0,0,0-0.1l0,0l0,0l0,0l0,0l0,0l0,0l-9-6c-0.3-0.2-0.7-0.2-0.9,0l-9,6l0,0l0,0l0,0l0,0
	l0,0l0,0c0,0,0,0,0,0.1l0,0c0,0,0,0,0,0.1l0,0c0,0,0,0,0,0.1l0,0c0,0,0,0,0,0.1l0,0v0.1v6v0.1l0,0c0,0,0,0,0,0.1l0,0c0,0,0,0,0,0.1
	l0,0c0,0,0,0,0,0.1l0,0c0,0,0,0,0,0.1l0,0l0,0l0,0l0,0l0,0l0,0l9,6c0.1,0.1,0.3,0.1,0.5,0.1c0.2,0,0.3,0,0.5-0.1l9-6l0,0l0,0l0,0
	l0,0l0,0l0,0c0,0,0,0,0-0.1l0,0c0,0,0,0,0-0.1l0,0c0,0,0,0,0-0.1l0,0c0,0,0,0,0-0.1l0,0v-0.1v-6C-1220.3,783-1220.3,783-1220.3,783z
	 M-1229.3,778.7l6.6,4.4l-3,2l-3.7-2.4v-4H-1229.3z M-1231,778.7v3.9l-3.7,2.4l-3-2L-1231,778.7z M-1238.3,784.6l2.1,1.4l-2.1,1.4
	V784.6z M-1231,793.5l-6.6-4.4l3-2l3.7,2.4L-1231,793.5L-1231,793.5z M-1230.1,788.1l-3-2l3-2l3,2L-1230.1,788.1z M-1229.3,793.5
	v-3.9l3.7-2.4l3,2L-1229.3,793.5z M-1222,787.5l-2.1-1.4l2.1-1.4V787.5z"/>
<g>
	<path class="st2" d="M-620.9,396.3c-0.2,8.8-7.4,15.9-16.3,15.7c-8.8-0.2-15.8-7.4-15.6-16.3c0.1-8.8,7.4-15.9,16.3-15.7
		C-627.8,380.2-620.8,387.5-620.9,396.3z M-646.8,396c0,1,0,1.9,0,2.9c0,0.4,0.1,0.7,0.5,0.9c2.9,2,5.9,3.9,8.8,5.9
		c0.4,0.3,0.7,0.3,1.1,0c2.9-2,5.9-3.9,8.8-5.9c0.3-0.2,0.5-0.5,0.5-0.9c0-1.9,0-3.8,0-5.7c0-0.4-0.2-0.7-0.5-0.9
		c-2.9-2-5.9-3.9-8.8-5.9c-0.4-0.3-0.8-0.3-1.2,0c-2.9,2-5.9,3.9-8.8,5.9c-0.3,0.2-0.5,0.5-0.5,0.9
		C-646.8,394.1-646.8,395.1-646.8,396z"/>
	<path class="st2" d="M-637.7,388.6c0,1.3,0,2.6,0,3.8c0,0.1-0.1,0.2-0.1,0.2c-1.1,0.8-2.3,1.5-3.4,2.3c-0.1,0-0.2,0-0.2,0
		c-0.9-0.6-1.9-1.3-2.9-1.9C-642.2,391.6-640,390.1-637.7,388.6z"/>
	<path class="st2" d="M-636,388.6c2.2,1.5,4.4,2.9,6.6,4.4c-0.4,0.3-0.9,0.6-1.3,0.9c-0.5,0.3-1,0.7-1.5,1c-0.1,0.1-0.2,0.1-0.3,0
		c-1.1-0.8-2.2-1.5-3.3-2.2c-0.1-0.1-0.2-0.2-0.2-0.3c0-1.2,0-2.4,0-3.6C-636,388.7-636,388.7-636,388.6z"/>
	<path class="st2" d="M-644.4,399.1c0.6-0.4,1.1-0.7,1.7-1.1c0.4-0.3,0.8-0.5,1.2-0.8c0.1,0,0.2,0,0.3,0c1.1,0.7,2.3,1.5,3.4,2.3
		c0.1,0,0.1,0.2,0.1,0.2c0,1.2,0,2.5,0,3.7c0,0,0,0,0,0.1C-640,402-642.2,400.5-644.4,399.1z"/>
	<path class="st2" d="M-629.4,399.1c-2.2,1.5-4.4,2.9-6.6,4.4c0-0.1,0-0.2,0-0.3c0-1.1,0-2.3,0-3.4c0-0.2,0-0.3,0.2-0.4
		c1.1-0.7,2.2-1.5,3.3-2.2c0.1,0,0.2-0.1,0.3,0C-631.3,397.8-630.4,398.4-629.4,399.1z"/>
	<path class="st2" d="M-639.9,396.1c1-0.7,1.9-1.3,2.9-1.9c0.1,0,0.2,0,0.2,0c1,0.6,1.9,1.3,2.9,1.9c-0.2,0.2-0.4,0.3-0.7,0.4
		c-0.7,0.5-1.4,1-2.2,1.4c-0.1,0.1-0.2,0.1-0.3,0C-638,397.3-638.9,396.7-639.9,396.1z"/>
	<path class="st2" d="M-642.9,396.1c-0.7,0.5-1.4,0.9-2.1,1.4c0-0.9,0-1.9,0-2.8C-644.3,395.1-643.7,395.6-642.9,396.1z"/>
	<path class="st2" d="M-628.7,397.5c-0.7-0.5-1.4-0.9-2.1-1.4c0.7-0.5,1.4-0.9,2.1-1.4C-628.7,395.6-628.7,396.5-628.7,397.5z"/>
</g>
</svg>
