<?xml version="1.0" encoding="utf-8"?>
<!-- Generator: Adobe Illustrator 19.1.0, SVG Export Plug-In . SVG Version: 6.00 Build 0)  -->
<svg version="1.1" id="Layer_1" xmlns="http://www.w3.org/2000/svg" xmlns:xlink="http://www.w3.org/1999/xlink" x="0px" y="0px"
	 viewBox="-623 385 32 32" style="enable-background:new -623 385 32 32;" xml:space="preserve">
<style type="text/css">
	.st0{fill:#CCCCCC;}
</style>
<path class="st0" d="M-592.3,385h-29.4c-0.7,0-1.3,0.6-1.3,1.3v29.3c0,0.8,0.6,1.4,1.3,1.4h29.3c0.7,0,1.3-0.6,1.3-1.3v-29.4
	C-591,385.6-591.6,385-592.3,385z M-613.5,412.3h-4.8V397h4.8V412.3z M-615.9,394.9c-1.5,0-2.8-1.2-2.8-2.8c0-1.5,1.2-2.8,2.8-2.8
	c1.5,0,2.8,1.2,2.8,2.8S-614.4,394.9-615.9,394.9z M-595.7,412.3h-4.7v-7.4c0-1.8,0-4-2.5-4s-2.8,1.9-2.8,3.9v7.6h-4.7V397h4.4v2.1
	h0.1c0.6-1.2,2.2-2.5,4.5-2.5c4.8,0,5.7,3.2,5.7,7.3V412.3z"/>
</svg>
