<?xml version="1.0" standalone="no"?>
<!DOCTYPE svg PUBLIC "-//W3C//DTD SVG 20010904//EN"
 "http://www.w3.org/TR/2001/REC-SVG-20010904/DTD/svg10.dtd">
<svg version="1.0" xmlns="http://www.w3.org/2000/svg"
 width="614.000000pt" height="526.000000pt" viewBox="0 0 614.000000 526.000000"
 preserveAspectRatio="xMidYMid meet">
<metadata>
Created by potrace 1.14, written by Peter Selinger 2001-2017
</metadata>
<g transform="translate(0.000000,526.000000) scale(0.100000,-0.100000)"
fill="#000000" stroke="none">
<path d="M4123 5160 c-18 -7 -123 -148 -123 -165 0 -3 -15 -29 -33 -58 -42
-64 -90 -142 -197 -317 -46 -74 -98 -159 -117 -188 -19 -29 -42 -68 -52 -85
-10 -18 -42 -70 -71 -117 -92 -149 -131 -213 -190 -310 -86 -142 -130 -213
-209 -338 -39 -63 -71 -116 -71 -119 0 -2 -18 -31 -40 -63 -22 -32 -40 -62
-40 -65 0 -4 -13 -26 -30 -50 -16 -24 -30 -46 -30 -49 0 -6 35 -65 110 -186
110 -177 133 -216 144 -235 10 -18 93 -154 197 -322 22 -35 58 -93 81 -130 22
-38 61 -98 85 -135 23 -37 43 -70 43 -74 0 -3 13 -24 29 -47 16 -23 38 -58 48
-77 11 -19 44 -73 73 -120 29 -47 61 -99 71 -117 17 -30 34 -57 122 -195 21
-32 37 -60 37 -64 0 -3 13 -24 29 -47 15 -23 57 -89 91 -147 76 -128 138 -220
148 -220 4 0 12 10 18 23 6 12 35 60 64 107 29 47 87 141 130 210 42 69 101
163 130 210 29 47 62 101 73 120 10 19 27 46 37 60 10 14 46 72 80 130 34 58
70 116 80 130 10 14 27 41 38 60 32 58 183 303 203 332 11 14 19 29 19 33 0 3
13 25 29 48 16 24 42 65 59 92 16 28 53 88 82 135 29 47 83 135 120 195 37 61
104 171 150 245 45 74 95 155 110 180 15 25 51 83 80 130 49 79 133 215 171
278 120 197 178 291 190 310 10 16 11 27 3 40 -9 15 -1881 961 -1929 975 -11
3 -30 2 -42 -3z"/>
<path d="M136 5115 c-15 -22 -16 -202 -16 -2046 0 -1525 3 -2031 12 -2061 27
-92 14 -84 972 -563 488 -245 899 -445 913 -445 13 0 35 7 49 16 58 38 54
-106 54 2118 l0 2045 -27 19 c-16 10 -443 227 -950 480 -676 339 -932 462
-957 462 -25 0 -38 -6 -50 -25z"/>
<path d="M2302 2863 l3 -1018 895 -447 c492 -247 896 -444 898 -439 3 9 -9 29
-115 193 -23 37 -43 70 -43 74 0 3 -13 24 -29 47 -16 23 -38 58 -48 77 -11 19
-44 73 -73 120 -29 47 -65 105 -80 130 -34 57 -169 276 -272 443 -43 70 -115
187 -160 260 -44 72 -113 184 -151 247 -38 63 -83 134 -98 157 -16 23 -29 44
-29 47 0 4 -15 30 -33 59 -33 50 -75 119 -160 257 -22 36 -60 95 -84 132 -23
37 -43 70 -43 74 0 3 -13 25 -30 49 -16 24 -30 46 -30 49 0 4 -20 37 -43 74
-24 37 -63 97 -85 135 -102 165 -121 195 -151 245 -18 28 -35 52 -37 52 -2 0
-3 -458 -2 -1017z"/>
<path d="M6083 3795 c-13 -19 -23 -37 -23 -41 0 -3 -13 -25 -30 -49 -16 -24
-30 -46 -30 -50 0 -4 -13 -25 -29 -48 -16 -24 -42 -65 -59 -92 -16 -28 -53
-88 -82 -135 -29 -47 -80 -130 -113 -185 -33 -55 -67 -111 -77 -125 -10 -14
-27 -41 -37 -60 -11 -19 -44 -73 -73 -120 -29 -47 -65 -105 -80 -130 -15 -25
-50 -82 -79 -127 -132 -212 -155 -250 -174 -283 -10 -19 -27 -46 -37 -60 -18
-25 -146 -236 -182 -300 -11 -19 -28 -46 -38 -60 -9 -14 -49 -77 -87 -140 -38
-63 -93 -153 -123 -200 -29 -47 -61 -99 -71 -117 -10 -17 -35 -58 -55 -90 -91
-142 -104 -163 -104 -169 0 -3 -13 -24 -29 -47 -46 -67 -181 -295 -181 -305 0
-11 1671 -848 1711 -857 38 -9 88 19 105 60 12 29 14 310 14 1900 0 1026 -3
1865 -7 1865 -5 0 -18 -16 -30 -35z"/>
</g>
</svg>
