<?xml version="1.0" encoding="utf-8"?>
<!-- Generator: Adobe Illustrator 19.1.0, SVG Export Plug-In . SVG Version: 6.00 Build 0)  -->
<svg version="1.1" id="Layer_1" xmlns="http://www.w3.org/2000/svg" xmlns:xlink="http://www.w3.org/1999/xlink" x="0px" y="0px"
	 viewBox="-332 138 614 526" style="enable-background:new -332 138 614 526;" xml:space="preserve">
<style type="text/css">
	.st0{fill:#919090;}
</style>
<g transform="translate(0.000000,526.000000) scale(0.100000,-0.100000)">
	<path class="st0" d="M803,3780c-18-7-123-148-123-165c0-3-15-29-33-58c-42-64-90-142-197-317c-46-74-98-159-117-188s-42-68-52-85
		c-10-18-42-70-71-117c-92-149-131-213-190-310c-86-142-130-213-209-338c-39-63-71-116-71-119c0-2-18-31-40-63s-40-62-40-65
		c0-4-13-26-30-50c-16-24-30-46-30-49c0-6,35-65,110-186c110-177,133-216,144-235c10-18,93-154,197-322c22-35,58-93,81-130
		c22-38,61-98,85-135c23-37,43-70,43-74c0-3,13-24,29-47s38-58,48-77c11-19,44-73,73-120s61-99,71-117c17-30,34-57,122-195
		c21-32,37-60,37-64c0-3,13-24,29-47c15-23,57-89,91-147c76-128,138-220,148-220c4,0,12,10,18,23c6,12,35,60,64,107s87,141,130,210
		c42,69,101,163,130,210s62,101,73,120c10,19,27,46,37,60s46,72,80,130s70,116,80,130s27,41,38,60c32,58,183,303,203,332
		c11,14,19,29,19,33c0,3,13,25,29,48c16,24,42,65,59,92c16,28,53,88,82,135s83,135,120,195c37,61,104,171,150,245
		c45,74,95,155,110,180s51,83,80,130c49,79,133,215,171,278c120,197,178,291,190,310c10,16,11,27,3,40c-9,15-1881,961-1929,975
		C834,3786,815,3785,803,3780z"/>
	<path class="st0" d="M-3184,3735c-15-22-16-202-16-2046c0-1525,3-2031,12-2061c27-92,14-84,972-563c488-245,899-445,913-445
		c13,0,35,7,49,16c58,38,54-106,54,2118v2045l-27,19c-16,10-443,227-950,480c-676,339-932,462-957,462S-3172,3754-3184,3735z"/>
	<path class="st0" d="M-1018,1483l3-1018l895-447c492-247,896-444,898-439c3,9-9,29-115,193c-23,37-43,70-43,74c0,3-13,24-29,47
		s-38,58-48,77c-11,19-44,73-73,120s-65,105-80,130c-34,57-169,276-272,443C75,733,3,850-42,923c-44,72-113,184-151,247
		s-83,134-98,157c-16,23-29,44-29,47c0,4-15,30-33,59c-33,50-75,119-160,257c-22,36-60,95-84,132c-23,37-43,70-43,74
		c0,3-13,25-30,49c-16,24-30,46-30,49c0,4-20,37-43,74c-24,37-63,97-85,135c-102,165-121,195-151,245c-18,28-35,52-37,52
		S-1019,2042-1018,1483z"/>
	<path class="st0" d="M2763,2415c-13-19-23-37-23-41c0-3-13-25-30-49c-16-24-30-46-30-50s-13-25-29-48c-16-24-42-65-59-92
		c-16-28-53-88-82-135s-80-130-113-185s-67-111-77-125s-27-41-37-60c-11-19-44-73-73-120s-65-105-80-130s-50-82-79-127
		c-132-212-155-250-174-283c-10-19-27-46-37-60c-18-25-146-236-182-300c-11-19-28-46-38-60c-9-14-49-77-87-140s-93-153-123-200
		c-29-47-61-99-71-117c-10-17-35-58-55-90c-91-142-104-163-104-169c0-3-13-24-29-47c-46-67-181-295-181-305c0-11,1671-848,1711-857
		c38-9,88,19,105,60c12,29,14,310,14,1900c0,1026-3,1865-7,1865C2788,2450,2775,2434,2763,2415z"/>
</g>
</svg>
